<svg width="1200" height="630" viewBox="0 0 1200 630" fill="none" xmlns="http://www.w3.org/2000/svg">
  <defs>
    <linearGradient id="bg" x1="80" y1="60" x2="1120" y2="570" gradientUnits="userSpaceOnUse">
      <stop stop-color="#F7F2E8"/>
      <stop offset="1" stop-color="#DCEEF3"/>
    </linearGradient>
    <linearGradient id="panel" x1="160" y1="120" x2="1040" y2="520" gradientUnits="userSpaceOnUse">
      <stop stop-color="#111111"/>
      <stop offset="1" stop-color="#1E2A31"/>
    </linearGradient>
    <filter id="shadow" x="120" y="100" width="960" height="460" filterUnits="userSpaceOnUse" color-interpolation-filters="sRGB">
      <feFlood flood-opacity="0" result="BackgroundImageFix"/>
      <feColorMatrix in="SourceAlpha" type="matrix" values="0 0 0 0 0 0 0 0 0 0 0 0 0 0 0 0 0 0 127 0" result="hardAlpha"/>
      <feOffset dy="18"/>
      <feGaussianBlur stdDeviation="20"/>
      <feComposite in2="hardAlpha" operator="out"/>
      <feColorMatrix type="matrix" values="0 0 0 0 0.07 0 0 0 0 0.11 0 0 0 0 0.13 0 0 0 0.22 0"/>
      <feBlend mode="normal" in2="BackgroundImageFix" result="effect1_dropShadow_1_1"/>
      <feBlend mode="normal" in="SourceGraphic" in2="effect1_dropShadow_1_1" result="shape"/>
    </filter>
  </defs>
  <rect width="1200" height="630" fill="url(#bg)"/>
  <circle cx="1070" cy="120" r="96" fill="#A7D7D7" fill-opacity="0.45"/>
  <circle cx="160" cy="540" r="120" fill="#E9BE8C" fill-opacity="0.32"/>
  <g filter="url(#shadow)">
    <rect x="160" y="120" width="880" height="390" rx="28" fill="url(#panel)"/>
  </g>
  <rect x="198" y="160" width="96" height="96" rx="22" fill="#F7F2E8"/>
  <path d="M232 186H260C273.255 186 284 196.745 284 210V238C284 251.255 273.255 262 260 262H232C218.745 262 208 251.255 208 238V210C208 196.745 218.745 186 232 186Z" stroke="#111111" stroke-width="10"/>
  <path d="M246 205V243" stroke="#111111" stroke-width="10" stroke-linecap="round"/>
  <path d="M227 224H265" stroke="#111111" stroke-width="10" stroke-linecap="round"/>
  <text x="324" y="208" fill="#F7F2E8" font-family="ui-monospace, SFMono-Regular, Menlo, Monaco, Consolas, Liberation Mono, monospace" font-size="34" font-weight="700">OPENRELAY</text>
  <text x="324" y="260" fill="#F7F2E8" font-family="Georgia, Times New Roman, serif" font-size="60" font-weight="700">Connect your coding agent to Feishu.</text>
  <text x="324" y="320" fill="#D5E7EC" font-family="ui-sans-serif, system-ui, sans-serif" font-size="29">Real backend sessions. Thread-first follow-ups. Per-directory project context.</text>
  <rect x="324" y="364" width="214" height="54" rx="27" fill="#F1C27D"/>
  <text x="356" y="399" fill="#111111" font-family="ui-sans-serif, system-ui, sans-serif" font-size="24" font-weight="700">Codex app-server</text>
  <rect x="556" y="364" width="214" height="54" rx="27" fill="#A7D7D7"/>
  <text x="609" y="399" fill="#111111" font-family="ui-sans-serif, system-ui, sans-serif" font-size="24" font-weight="700">Feishu threads</text>
  <rect x="788" y="364" width="180" height="54" rx="27" fill="#F7F2E8" fill-opacity="0.14" stroke="#F7F2E8"/>
  <text x="818" y="399" fill="#F7F2E8" font-family="ui-sans-serif, system-ui, sans-serif" font-size="24" font-weight="700">Real session</text>
  <text x="324" y="456" fill="#D5E7EC" font-family="ui-monospace, SFMono-Regular, Menlo, Monaco, Consolas, Liberation Mono, monospace" font-size="22">github.com/Krual-T/OpenRelay</text>
</svg>
